{"title":"UFC 116: Lesnar vs Carwin [SatRiP-XviD-Mp3-ENG][TNTVillage.Scamb","uid":5668558,"size":1416302428,"categoryP":"video","categoryS":"tv_shows","magnet":"?xt=urn:btih:75d5bf5af71492485da4fc1fc590127b4ae9eae0&amp;dn=UFC+116%3A+Lesnar+vs+Carwin+%5BSatRiP-XviD-Mp3-ENG%5D%5BTNTVillage.Scamb&amp;tr=udp%3A%2F%2Ftracker.openbittorrent.com%3A80&amp;tr=udp%3A%2F%2Fopen.demonii.com%3A1337&amp;tr=udp%3A%2F%2Ftracker.coppersurfer.tk%3A6969&amp;tr=udp%3A%2F%2Fexodus.desync.com%3A6969","seeders":2,"leechers":0,"uploader":"maxneb","files":2,"time":1278242220,"description":"UFC 116: Lesnar vs Carwin [SatRiP-XviD-Mp3-ENG][TNTVillage.Scambioetico]\n\n\n\nGeneral\nComplete name                    : C:UFC.116.Lesnar.vs.Carwin.DSR.XviD-XWT-Part1.avi\nFormat                           : AVI\nFormat/Info                      : Audio Video Interleave\nFile size                        : 732 MiB\nDuration                         : 1h 27mn\nOverall bit rate                 : 1 163 Kbps\n\nVideo\nFormat                           : MPEG-4 Visual\nFormat profile                   : Streaming Video@L1\nFormat settings, BVOP            : Yes\nFormat settings, QPel            : No\nFormat settings, GMC             : No warppoints\nFormat settings, Matrix          : Default\nCodec ID                         : XVID\nCodec ID/Hint                    : XviD\nDuration                         : 1h 27mn\nBit rate                         : 1 023 Kbps\nWidth                            : 640 pixels\nHeight                           : 368 pixels\nDisplay aspect ratio             : 16/9\nFrame rate                       : 25.000 fps\nResolution                       : 24 bits\nColorimetry                      : 4:2:0\nScan type                        : Progressive\nBits/(Pixel*Frame)               : 0.174\nStream size                      : 643 MiB (88%)\nWriting library                  : XviD 1.1.2 (UTC 2006-11-01)\n\nAudio\nFormat                           : MPEG Audio\nFormat version                   : Version 1\nFormat profile                   : Layer 3\nCodec ID                         : 55\nCodec ID/Hint                    : MP3\nDuration                         : 1h 27mn\nBit rate mode                    : Constant\nBit rate                         : 128 Kbps\nChannel(s)                       : 2 channels\nSampling rate                    : 44.1 KHz\nResolution                       : 16 bits\nStream size                      : 80.5 MiB (11%)\nAlignment                        : Aligned on interleaves\nInterleave, duration             : 26 ms (0.65 video frame)\nInterleave, preload duration     : 809 ms\n\n &lt;a href=&quot;\nhttp://uptiki.com/images/xbrdqxip63i6d7jjsbzt.png&quot; rel=&quot;nofollow&quot; target=&quot;_NEW&quot;&gt;\nhttp://uptiki.com/images/xbrdqxip63i6d7jjsbzt.png&lt;/a&gt;\n &lt;a href=&quot;\nhttp://uptiki.com/images/6dcrb77pchpdhatjf5sn.png&quot; rel=&quot;nofollow&quot; target=&quot;_NEW&quot;&gt;\nhttp://uptiki.com/images/6dcrb77pchpdhatjf5sn.png&lt;/a&gt;\n &lt;a href=&quot;\nhttp://uptiki.com/images/395r0o1dffgcaetydemx.png&quot; rel=&quot;nofollow&quot; target=&quot;_NEW&quot;&gt;\nhttp://uptiki.com/images/395r0o1dffgcaetydemx.png&lt;/a&gt;\n &lt;a href=&quot;\nhttp://uptiki.com/images/3hgaw18nygvi79amvzbi.png&quot; rel=&quot;nofollow&quot; target=&quot;_NEW&quot;&gt;\nhttp://uptiki.com/images/3hgaw18nygvi79amvzbi.png&lt;/a&gt;\n &lt;a href=&quot;\nhttp://uptiki.com/images/geljldfs0hs4qgfvjrn.png&quot; rel=&quot;nofollow&quot; target=&quot;_NEW&quot;&gt;\nhttp://uptiki.com/images/geljldfs0hs4qgfvjrn.png&lt;/a&gt;\n &lt;a href=&quot;\nhttp://uptiki.com/images/lxc2xj7fxfv7ioltlcv2.png&quot; rel=&quot;nofollow&quot; target=&quot;_NEW&quot;&gt;\nhttp://uptiki.com/images/lxc2xj7fxfv7ioltlcv2.png&lt;/a&gt;\n &lt;a href=&quot;\nhttp://uptiki.com/images/htvsonk7yegp48cyyt3.png&quot; rel=&quot;nofollow&quot; target=&quot;_NEW&quot;&gt;\nhttp://uptiki.com/images/htvsonk7yegp48cyyt3.png&lt;/a&gt;\n &lt;a href=&quot;\nhttp://uptiki.com/images/0qoh9tzfqasxb9igncpf.png&quot; rel=&quot;nofollow&quot; target=&quot;_NEW&quot;&gt;\nhttp://uptiki.com/images/0qoh9tzfqasxb9igncpf.png&lt;/a&gt;","torrent":{"xt":"urn:btih:75d5bf5af71492485da4fc1fc590127b4ae9eae0","amp;dn":"UFC+116%3A+Lesnar+vs+Carwin+%5BSatRiP-XviD-Mp3-ENG%5D%5BTNTVillage.Scamb","amp;tr":["udp%3A%2F%2Ftracker.openbittorrent.com%3A80","udp%3A%2F%2Fopen.demonii.com%3A1337","udp%3A%2F%2Ftracker.coppersurfer.tk%3A6969","udp%3A%2F%2Fexodus.desync.com%3A6969"],"infoHash":"75d5bf5af71492485da4fc1fc590127b4ae9eae0","infoHashBuffer":{"type":"Buffer","data":[117,213,191,90,247,20,146,72,93,164,252,31,197,144,18,123,74,233,234,224]},"announce":[],"urlList":[]}}